HIERARCHY
ROOT Hips
{
	OFFSET 0.00000 0.00000 0.00000
	CHANNELS 6 Xposition Yposition Zposition Yrotation Zrotation Xrotation 
	JOINT Lumbar
	{
		OFFSET 0 0 0
		CHANNELS 3 Zrotation Xrotation Yrotation
		JOINT Neck
		{
			OFFSET 0.00 0.2701 0.00
			CHANNELS 3 Zrotation Xrotation Yrotation
			End Site
			{
				OFFSET 0.00 0.1379 0.00
			}
		}
		JOINT RightShoulder
		{
			OFFSET 0.0119 0.2289 0.1181
			CHANNELS 3 Zrotation Xrotation Yrotation
			JOINT RightElbow
			{
				OFFSET 0.00 -0.1475 0.00
				CHANNELS 2 Zrotation Yrotation
				JOINT RightWrist
				{
					OFFSET 0.00 -0.1605 0.00
					CHANNELS 2 Zrotation Xrotation
					End Site
					{
						OFFSET 0.0040 -0.1068 0.0006
					}
				}
			}
		}
		JOINT LeftShoulder
		{
			OFFSET 0.0119 0.2289 -0.1181
			CHANNELS 3 Zrotation Xrotation Yrotation
			JOINT LeftElbow
			{
				OFFSET 0.00 -0.1475 0.00
				CHANNELS 2 Zrotation Yrotation
				JOINT LeftWrist
				{
					OFFSET 0.00 -0.1605 0.00
					CHANNELS 2 Zrotation Xrotation
					End Site
					{
						OFFSET 0.0040 -0.1068 -0.0006
					}
				}
			}
		}
	}
	JOINT RightHip
	{
		OFFSET 0.0316 -0.0424 0.0458
		CHANNELS 3 Zrotation Xrotation Yrotation
		JOINT RightKnee
		{
			OFFSET 0.00 -0.2438 0.00
			CHANNELS 1 Zrotation
			JOINT RightAnkle
			{
				OFFSET 0.00 -0.2449 0.00
				CHANNELS 3 Zrotation Xrotation Yrotation
				End Site
				{
					OFFSET 0.1237 -0.0542 0.0051
				}
			}
		}
	}
	JOINT LeftHip
	{
		OFFSET 0.0316 -0.0424 -0.0458
		CHANNELS 3 Zrotation Xrotation Yrotation
		JOINT LeftKnee
		{
			OFFSET 0.00 -0.2438 0.00
			CHANNELS 1 Zrotation
			JOINT LeftAnkle
			{
				OFFSET 0.00 -0.2449 0.00
				CHANNELS 3 Zrotation Xrotation Yrotation
				End Site
				{
					OFFSET 0.1237 -0.0542 -0.0051
				}
			}
		}
	}
}
MOTION
Frames: 11
Frame Time: 0.02
-0 0.57926 -0 175.92613 0 7.2282 6.08758 -5.6202 1.3341 -19.78865 4.80196 2.86484 25.65114 -17.79654 11.57217 11.04646 81.62124 -1.35942 -2.42711 31.82567 2.66989 0.21413 10.91816 -83.07684 -4.33075 3.9442 19.78936 -1.94273 21.80338 -44.50333 12.25775 -8.90138 -16.11498 -1.58998 -12.98628 8.37219 -5.66535 6.88852 1.56737 -0.18978
0.00051 0.57928 0.00016 175.99134 0 7.24001 6.05285 -5.64293 1.30244 -19.80095 4.87955 2.96649 25.51933 -17.96885 12.38871 11.32416 81.68632 -1.37818 -2.58816 31.56539 2.59812 0.11136 10.93395 -82.9538 -4.21004 3.96264 19.82424 -1.97195 21.80648 -44.49277 12.23101 -8.85561 -16.13642 -1.50308 -13.05618 7.28762 -5.71632 6.82131 1.94682 0.82604
0.00101 0.57929 0.00033 176.05628 0 7.25145 6.01786 -5.66555 1.27081 -19.81235 4.95737 3.0684 25.38426 -18.14182 13.19623 11.59882 81.7509 -1.39654 -2.74717 31.30113 2.52672 0.0202 10.9473 -82.83103 -4.09066 3.98004 19.85888 -2.00084 21.80913 -44.48195 12.20433 -8.81016 -16.15761 -1.41668 -13.12502 6.21527 -5.76691 6.75481 2.322 1.8298
0.00151 0.5793 0.00049 176.11996 0 7.26274 5.98223 -5.68859 1.23975 -19.82221 5.0357 3.17156 25.2412 -18.31753 13.98279 11.86561 81.81494 -1.41326 -2.90018 31.02522 2.45675 -0.03835 10.95293 -82.70987 -3.97521 3.99396 19.89386 -2.02946 21.81117 -44.47172 12.17791 -8.76567 -16.17795 -1.33144 -13.19111 5.19224 -5.81653 6.6911 2.67999 2.78528
0.00203 0.57932 0.00066 176.18936 0 7.2763 5.95087 -5.71018 1.20659 -19.84258 5.10989 3.26713 25.14814 -18.47683 14.88907 12.17599 81.88288 -1.43837 -3.08569 30.8193 2.37998 -0.28518 11.0017 -82.58224 -3.83867 4.02694 19.9282 -2.06045 21.81784 -44.46048 12.15045 -8.71627 -16.20275 -1.24011 -13.2728 3.92118 -5.87135 6.61335 3.12444 3.98457
0.00251 0.57933 0.00081 176.24723 0 7.28406 5.90994 -5.73431 1.17729 -19.83908 5.19373 3.37935 24.94421 -18.67198 15.53531 12.39256 81.94178 -1.44593 -3.2018 30.45991 2.31716 -0.12298 10.95768 -82.46701 -3.74707 4.01916 19.96308 -2.08576 21.81379 -44.44993 12.12498 -8.67716 -16.21808 -1.16169 -13.32072 3.16699 -5.91504 6.56488 3.38872 4.67512
0.0029 0.57931 0.0009 176.26855 0 7.2833 5.84504 -5.77042 1.16353 -19.78006 5.29977 3.53635 24.45937 -18.96433 15.50377 12.35733 81.98246 -1.40161 -3.12594 29.69717 2.2966 1.12796 10.65952 -82.39583 -3.78016 3.89788 20.00663 -2.10012 21.78709 -44.4528 12.10644 -8.66791 -16.20659 -1.11853 -13.27847 3.94933 -5.92889 6.60326 3.11721 3.85797
0.00326 0.57929 0.00097 176.27916 0 7.27505 5.76986 -5.80805 1.15285 -19.69446 5.41666 3.71041 23.85651 -19.29354 15.20159 12.22598 82.01273 -1.34019 -2.97976 28.77413 2.28927 2.80154 10.26723 -82.33514 -3.85856 3.73549 20.04917 -2.10752 21.74866 -44.45387 12.08962 -8.66886 -16.18549 -1.08849 -13.20118 5.23526 -5.93136 6.67018 2.67007 2.5443
0.00363 0.57928 0.00104 176.29773 0 7.26562 5.69777 -5.84202 1.13743 -19.61478 5.53137 3.87784 23.29168 -19.60744 14.99774 12.13386 82.04358 -1.28871 -2.86617 27.91105 2.27362 4.30898 9.91591 -82.26333 -3.9159 3.59231 20.08791 -2.11551 21.71053 -44.44879 12.07107 -8.6641 -16.16941 -1.05259 -13.13823 6.2196 -5.9385 6.72016 2.32836 1.5247
0.00401 0.57923 0.00114 176.30311 0 7.27649 5.63267 -5.88924 1.13571 -19.56311 5.63372 4.04111 22.79642 -19.91522 14.90069 12.06066 82.09233 -1.22793 -2.75088 27.10551 2.26831 5.70359 9.57118 -82.21887 -3.9752 3.44682 20.14579 -2.13588 21.69204 -44.47473 12.05653 -8.66355 -16.15121 -1.01604 -13.08325 7.50689 -5.94776 6.7868 1.88043 0.22003
0.00435 0.57926 0.00117 176.33358 0 7.24209 5.55019 -5.90832 1.10669 -19.44426 5.76531 4.21633 22.12368 -20.24451 14.51347 11.92503 82.10082 -1.18264 -2.6212 26.13822 2.24384 7.43769 9.19172 -82.11928 -4.04122 3.2965 20.16208 -2.12688 21.63187 -44.43359 12.03405 -8.65707 -16.13433 -0.98422 -13.00173 8.28776 -5.94986 6.82565 1.60969 -0.6134
